<?xml version="1.0" encoding="utf-8"?>
<!-- Generator: Adobe Illustrator 20.1.0, SVG Export Plug-In . SVG Version: 6.00 Build 0)  -->
<svg version="1.1" id="Layer_1" xmlns="http://www.w3.org/2000/svg" xmlns:xlink="http://www.w3.org/1999/xlink" x="0px" y="0px"
	 width="378.1393433px" height="172.8426819px" viewBox="0 0 378.1393433 172.8426819"
	 style="enable-background:new 0 0 378.1393433 172.8426819;" xml:space="preserve">
<style type="text/css">
	.st0{fill:url(#SVGID_1_);}
	.st1{fill:#FFFFFF;}
	.st2{fill:#F1F1F1;}
	.st3{fill:none;}
	.st4{opacity:0.18;fill:#4D4D4D;}
	.st5{fill:url(#SVGID_2_);}
	.st6{fill:#0F324B;}
	.st7{fill:url(#SVGID_3_);}
</style>
<g>
	<linearGradient id="SVGID_1_" gradientUnits="userSpaceOnUse" x1="0" y1="86.4213409" x2="378.1393433" y2="86.4213409">
		<stop  offset="0" style="stop-color:#278AD1"/>
		<stop  offset="1" style="stop-color:#3FA1E8"/>
	</linearGradient>
	<polygon class="st0" points="321.2166443,0 321.2166443,0.0351578 0.0231628,0.0351578 56.9227867,86.4037552 0,172.8075104 
		0,172.8426819 321.2166443,172.8426819 321.2166443,172.8075104 378.1393433,86.4037552 	"/>
	<g>
		<path class="st6" d="M174.885376,135.1662292h-23.4723816V98.7274017h-43.3336182V37.6241493h66.8059998V135.1662292z
			 M131.5517578,75.2547302h19.8612366V61.0965271h-19.8612366V75.2547302z"/>
		<g>
			<polygon class="st6" points="246.514328,76.2820053 228.8934021,93.8991013 248.5015564,135.2185211 274.4828491,135.2185211 			
				"/>
			<polygon class="st6" points="209.8782196,37.7178535 186.4096832,37.7178535 186.4096832,92.4403305 186.4096832,125.2879257 
				186.4096832,135.2185211 209.8782196,135.2185211 			"/>
			<polygon class="st6" points="243.054245,68.9907074 274.3270264,37.7178535 241.1321716,37.7178535 217.4822845,61.3677406 
				217.4822845,94.5576782 243.0542908,68.9908218 			"/>
		</g>
	</g>
</g>
</svg>
